{"accessors":[{"bufferView":2,"componentType":5126,"count":102,"max":[-0.2611745297908783,11.137462615966797,0.7629618644714355],"min":[-0.9785406589508057,10.455207824707031,0.04559575766324997],"type":"VEC3"},{"bufferView":2,"byteOffset":1224,"componentType":5126,"count":102,"max":[1,0.9510564208030701,1],"min":[-1,-0.9510567784309387,-1],"type":"VEC3"},{"bufferView":3,"componentType":5126,"count":102,"max":[0.4604528248310089,1,0.9911810159683228,1],"min":[-0.9676198959350586,-0.5865313410758972,-0.991743266582489,1],"type":"VEC4"},{"bufferView":1,"componentType":5126,"count":102,"max":[0.9200184345245361,0.999500572681427],"min":[0.00045990943908691406,-0.0014536380767822266],"type":"VEC2"},{"bufferView":0,"componentType":5125,"count":540,"max":[101],"min":[0],"type":"SCALAR"},{"bufferView":2,"byteOffset":2448,"componentType":5126,"count":102,"max":[-0.2611745595932007,11.137462615966797,0.7629618644714355],"min":[-0.9785406589508057,10.455207824707031,0.04559575766324997],"type":"VEC3"},{"bufferView":2,"byteOffset":3672,"componentType":5126,"count":102,"max":[1,0.9510567784309387,1],"min":[-1,-0.9510564208030701,-1],"type":"VEC3"},{"bufferView":3,"byteOffset":1632,"componentType":5126,"count":102,"max":[0.9676198959350586,1,0.9911810159683228,1],"min":[-0.46045371890068054,-0.5865313410758972,-0.991743266582489,1],"type":"VEC4"},{"bufferView":1,"byteOffset":816,"componentType":5126,"count":102,"max":[0.9200184345245361,0.999500572681427],"min":[0.00045990943908691406,-0.0014536380767822266],"type":"VEC2"},{"bufferView":0,"byteOffset":2160,"componentType":5125,"count":540,"max":[101],"min":[0],"type":"SCALAR"},{"bufferView":2,"byteOffset":4896,"componentType":5126,"count":4970,"max":[7.5066986083984375,12.989204406738281,2.1644248962402344],"min":[-7.5066986083984375,-0.034003257751464844,-8.137866973876953],"type":"VEC3"},{"bufferView":2,"byteOffset":64536,"componentType":5126,"count":4970,"max":[0.9999767541885376,0.9996612071990967,0.999535858631134],"min":[-0.9999767541885376,-0.9999699592590332,-0.9985983967781067],"type":"VEC3"},{"bufferView":3,"byteOffset":3264,"componentType":5126,"count":4970,"max":[0.9999768733978271,0.999989926815033,0.9998820424079895,1],"min":[-0.9999794960021973,-0.9999096989631653,-0.9999734163284302,-1],"type":"VEC4"},{"bufferView":1,"byteOffset":1632,"componentType":5126,"count":4970,"max":[0.9390504956245422,0.9995006322860718],"min":[0.0004692945221904665,0.0004995006020180881],"type":"VEC2"},{"bufferView":0,"byteOffset":4320,"componentType":5125,"count":15708,"max":[4969],"min":[0],"type":"SCALAR"},{"bufferView":2,"byteOffset":124176,"componentType":5126,"count":282,"max":[0.4602816104888916,9.194008827209473,1.6485849618911743],"min":[-0.45960700511932373,8.997694969177246,0.957983136177063],"type":"VEC3"},{"bufferView":2,"byteOffset":127560,"componentType":5126,"count":282,"max":[0.9998334050178528,0.9998943209648132,0.9982293844223022],"min":[-0.9998466372489929,-0.9998943209648132,-0.9982293844223022],"type":"VEC3"},{"bufferView":3,"byteOffset":82784,"componentType":5126,"count":282,"max":[0.684027373790741,0.028949066996574402,0.9999930262565613,1],"min":[-0.684027373790741,-1,-0.9999942779541016,1],"type":"VEC4"},{"bufferView":0,"byteOffset":67152,"componentType":5125,"count":816,"max":[281],"min":[0],"type":"SCALAR"},{"bufferView":2,"byteOffset":130944,"componentType":5126,"count":306,"max":[0.4172695279121399,9.08796501159668,1.654081106185913],"min":[-0.41872888803482056,8.934757232666016,0.9670141339302063],"type":"VEC3"},{"bufferView":2,"byteOffset":134616,"componentType":5126,"count":306,"max":[0.9999874830245972,1,0.9890702366828918],"min":[-0.9999708533287048,-1,-0.9890702366828918],"type":"VEC3"},{"bufferView":3,"byteOffset":87296,"componentType":5126,"count":306,"max":[0.9618967175483704,0.0021440701093524694,1,1],"min":[-0.9890239238739014,-1,-1,-1],"type":"VEC4"},{"bufferView":0,"byteOffset":70416,"componentType":5125,"count":912,"max":[305],"min":[0],"type":"SCALAR"},{"bufferView":4,"componentType":5126,"count":1,"max":[1,0,0,0,0,1,0,0,0,0,1,0,0,0,0,1],"min":[1,0,0,0,0,1,0,0,0,0,1,0,0,0,0,1],"type":"MAT4"}],"asset":{"extras":{"author":"gmttuts (https://sketchfab.com/gmttuts)","license":"CC-BY-4.0 (http://creativecommons.org/licenses/by/4.0/)","source":"https://sketchfab.com/models/7d8bf4eee041473e806e7b41ea7d2de5","title":"Lion Model"},"generator":"Sketchfab-3.20.6","version":"2.0"},"bufferViews":[{"buffer":0,"byteLength":74064,"byteOffset":0,"name":"floatBufferViews","target":34963},{"buffer":0,"byteLength":41392,"byteOffset":74064,"byteStride":8,"name":"floatBufferViews","target":34962},{"buffer":0,"byteLength":138288,"byteOffset":115456,"byteStride":12,"name":"floatBufferViews","target":34962},{"buffer":0,"byteLength":92192,"byteOffset":253744,"byteStride":16,"name":"floatBufferViews","target":34962},{"buffer":0,"byteLength":64,"byteOffset":345936,"byteStride":64,"name":"floatBufferViews"}],"buffers":[{"byteLength":346000,"uri":"data:application/octet-stream;base64,"}],"images":[{"uri":"data:application/octet-stream;base64,"},{"uri":"data:application/octet-stream;base64,"},{"uri":"data:application/octet-stream;base64,"}],"materials":[{"doubleSided":true,"emissiveFactor":[0,0,0],"name":"Mat_Phai_UVs_maps","pbrMetallicRoughness":{"baseColorFactor":[1,1,1,1],"baseColorTexture":{"index":0,"texCoord":0},"metallicFactor":0,"roughnessFactor":0.6}},{"doubleSided":true,"emissiveFactor":[0,0,0],"name":"Mat_Phai_UVs_maps_0","pbrMetallicRoughness":{"baseColorFactor":[1,1,1,1],"baseColorTexture":{"index":1,"texCoord":0},"metallicFactor":0,"roughnessFactor":0.6}},{"doubleSided":true,"emissiveFactor":[0,0,0],"name":"UVs_Maps_Lion","pbrMetallicRoughness":{"baseColorFactor":[1,1,1,1],"baseColorTexture":{"index":2,"texCoord":0},"metallicFactor":0,"roughnessFactor":0.6}},{"doubleSided":true,"emissiveFactor":[0,0,0],"name":"Rang","pbrMetallicRoughness":{"baseColorFactor":[0.8,0.8,0.8,1],"metallicFactor":0,"roughnessFactor":0.6}},{"doubleSided":true,"emissiveFactor":[0,0,0],"name":"Rang_0","pbrMetallicRoughness":{"baseColorFactor":[0.8,0.8,0.8,1],"metallicFactor":0,"roughnessFactor":0.6}}],"meshes":[{"primitives":[{"attributes":{"NORMAL":1,"POSITION":0,"TANGENT":2,"TEXCOORD_0":3},"indices":4,"material":0,"mode":4}]},{"primitives":[{"attributes":{"NORMAL":6,"POSITION":5,"TANGENT":7,"TEXCOORD_0":8},"indices":9,"material":1,"mode":4}]},{"name":"0","primitives":[{"attributes":{"NORMAL":11,"POSITION":10,"TANGENT":12,"TEXCOORD_0":13},"indices":14,"material":2,"mode":4}]},{"primitives":[{"attributes":{"NORMAL":16,"POSITION":15,"TANGENT":17},"indices":18,"material":3,"mode":4}]},{"primitives":[{"attributes":{"NORMAL":20,"POSITION":19,"TANGENT":21},"indices":22,"material":4,"mode":4}]}],"nodes":[{"children":[1],"name":"RootNode (gltf orientation matrix)","rotation":[-0.7071067811865475,0,0,0.7071067811865476]},{"children":[2],"name":"RootNode (model correction matrix)"},{"children":[3],"matrix":[1,0,0,0,0,0,1,0,0,-1,0,0,0,0,0,1],"name":"Lion Main.fbx"},{"children":[4],"name":"RootNode"},{"children":[5],"name":"POS"},{"children":[6],"name":"WALK"},{"children":[7],"name":"xuongchinh"},{"children":[8,9,11,13,15,17],"name":""},{"name":"_rootJoint"},{"children":[10],"matrix":[1,-4.87267240583788e-32,4.930380657631324e-32,0,4.87267240583788e-32,1,0,0,-4.930380657631324e-32,2.402412978071697e-63,1,0,0,0,0,1],"name":""},{"mesh":0,"name":""},{"children":[12],"matrix":[-1,-5.770825179344475e-34,0,0,-5.770825179344475e-34,1,1.2246467991473532e-16,0,7.067222584323162e-50,-1.2246467991473532e-16,1,0,0.022971737988865537,0,0,1],"name":""},{"mesh":1,"name":""},{"children":[14],"matrix":[1,4.930380657631324e-32,0,0,-4.930380657631324e-32,1,0,0,0,0,1,0,0,0,0,1],"name":""},{"mesh":2,"name":"0"},{"children":[16],"matrix":[1,-1.504813363542541e-32,0,0,1.504813363542541e-32,1,0,0,0,0,1,0,-1.3010426069826053e-18,-1.7763568394002505e-15,0,1],"name":""},{"mesh":3,"name":""},{"children":[18],"matrix":[1,-3.4305330362433094e-32,0,0,3.4305330362433094e-32,1,4.930380657631324e-32,0,-1.691383372725927e-63,-4.930380657631324e-32,1,0,0,0,0,1],"name":""},{"mesh":4,"name":""}],"samplers":[{"magFilter":9729,"minFilter":9987,"wrapS":10497,"wrapT":10497}],"scene":0,"scenes":[{"name":"OSG_Scene","nodes":[0]}],"skins":[{"inverseBindMatrices":23,"joints":[8],"skeleton":8}],"textures":[{"sampler":0,"source":0},{"sampler":0,"source":1},{"sampler":0,"source":2}]}